<?xml version="1.0" encoding="UTF-8"?>
<!DOCTYPE svg PUBLIC "-//W3C//DTD SVG 1.1//EN" "http://www.w3.org/Graphics/SVG/1.1/DTD/svg11.dtd">
<svg xmlns="http://www.w3.org/2000/svg" version="1.1" width="224px" height="224px" style="shape-rendering:geometricPrecision; text-rendering:geometricPrecision; image-rendering:optimizeQuality; fill-rule:evenodd; clip-rule:evenodd" xmlns:xlink="http://www.w3.org/1999/xlink">
<g><path style="opacity:0.998" fill="#0c4687" d="M 162.5,26.5 C 164.461,28.9635 166.628,31.2968 169,33.5C 169.49,34.7932 169.657,36.1266 169.5,37.5C 164.203,44.4644 158.203,50.7977 151.5,56.5C 151.631,55.7611 151.464,55.0944 151,54.5C 146.564,58.4276 142.731,62.7609 139.5,67.5C 133.822,72.8444 128.489,78.5111 123.5,84.5C 129.607,91.7209 135.94,98.7209 142.5,105.5C 148.168,112.187 154.168,117.854 160.5,122.5C 164.131,125.629 167.631,128.963 171,132.5C 171.773,134.352 171.273,135.686 169.5,136.5C 166.911,137.419 164.911,139.086 163.5,141.5C 162.167,141.833 162.167,142.167 163.5,142.5C 162.167,143.5 160.833,144.5 159.5,145.5C 158.127,145.657 156.793,145.49 155.5,145C 152.949,142.071 150.282,139.238 147.5,136.5C 146.893,136.624 146.56,136.957 146.5,137.5C 138.752,130.419 131.419,123.085 124.5,115.5C 119.959,109.45 114.793,103.784 109,98.5C 108.536,99.0944 108.369,99.7611 108.5,100.5C 103.494,94.8273 98.1606,89.4939 92.5,84.5C 93.9541,82.5635 95.6207,80.8968 97.5,79.5C 97.369,80.2389 97.5357,80.9056 98,81.5C 107.145,72.5245 115.978,63.5245 124.5,54.5C 126.354,51.4905 128.687,48.8238 131.5,46.5C 131.897,47.525 132.563,47.6917 133.5,47C 140.102,40.9043 146.102,34.4043 151.5,27.5C 151.821,25.9519 152.821,25.2852 154.5,25.5C 154.5,24.5 154.5,23.5 154.5,22.5C 158.307,21.7741 160.974,23.1074 162.5,26.5 Z"/></g>
<g><path style="opacity:0.439" fill="#6a89b4" d="M 162.5,26.5 C 167.804,27.9545 170.638,31.2879 171,36.5C 170.617,37.056 170.117,37.3893 169.5,37.5C 169.657,36.1266 169.49,34.7932 169,33.5C 166.628,31.2968 164.461,28.9635 162.5,26.5 Z"/></g>
<g><path style="opacity:0.043" fill="#4e76ad" d="M 151.5,27.5 C 146.102,34.4043 140.102,40.9043 133.5,47C 132.563,47.6917 131.897,47.525 131.5,46.5C 137.556,39.4423 144.222,33.1089 151.5,27.5 Z"/></g>
<g><path style="opacity:0.995" fill="#12bf66" d="M 147.5,85.5 C 146.761,85.369 146.094,85.5357 145.5,86C 153.333,93.8333 161.167,101.667 169,109.5C 169.483,110.448 169.649,111.448 169.5,112.5C 167.912,114.319 166.246,116.153 164.5,118C 163.833,118.667 163.167,118.667 162.5,118C 151.86,107.36 141.194,96.6937 130.5,86C 130.884,85.0494 131.217,84.2161 131.5,83.5C 132.552,83.6495 133.552,83.4828 134.5,83C 144.425,73.5795 153.758,63.7461 162.5,53.5C 163.251,52.4265 164.251,52.2599 165.5,53C 168.07,55.0673 170.07,57.5673 171.5,60.5C 163.479,68.8539 155.479,77.1872 147.5,85.5 Z"/></g>
<g><path style="opacity:0.004" fill="#638fbb" d="M 151.5,56.5 C 147.5,60.1667 143.5,63.8333 139.5,67.5C 142.731,62.7609 146.564,58.4276 151,54.5C 151.464,55.0944 151.631,55.7611 151.5,56.5 Z"/></g>
<g><path style="opacity:0.02" fill="#40689c" d="M 124.5,54.5 C 115.978,63.5245 107.145,72.5245 98,81.5C 97.5357,80.9056 97.369,80.2389 97.5,79.5C 105.678,69.9779 114.678,61.6446 124.5,54.5 Z"/></g>
<g><path style="opacity:0.016" fill="#4bc58d" d="M 162.5,53.5 C 153.758,63.7461 144.425,73.5795 134.5,83C 133.552,83.4828 132.552,83.6495 131.5,83.5C 141.22,72.7791 151.553,62.7791 162.5,53.5 Z"/></g>
<g><path style="opacity:0.998" fill="#16c067" d="M 63.5,174.5 C 64.552,174.649 65.552,174.483 66.5,174C 72.7304,168.303 78.0637,162.469 82.5,156.5C 88.8488,151.151 94.5155,145.151 99.5,138.5C 91.8183,129.153 83.485,120.486 74.5,112.5C 74.9382,112.565 75.2716,112.399 75.5,112C 70.2422,106.236 64.5755,101.069 58.5,96.5C 54.8349,94.3708 52.6682,91.3708 52,87.5C 56.1867,82.9493 60.3533,79.1159 64.5,76C 65.5,75.3333 66.5,75.3333 67.5,76C 88.3822,97.0691 109.382,117.902 130.5,138.5C 110.743,156.423 91.7429,175.256 73.5,195C 72.0997,196.438 70.433,197.271 68.5,197.5C 68.5,198.5 68.5,199.5 68.5,200.5C 66.4086,200.682 64.4086,200.348 62.5,199.5C 61.0758,197.282 59.0758,195.782 56.5,195C 54.2256,193.235 52.5589,191.068 51.5,188.5C 55.1466,183.521 59.1466,178.854 63.5,174.5 Z"/></g>
<g><path style="opacity:0.008" fill="#68cda4" d="M 147.5,85.5 C 154.715,93.218 162.215,100.885 170,108.5C 170.765,110.066 170.598,111.399 169.5,112.5C 169.649,111.448 169.483,110.448 169,109.5C 161.167,101.667 153.333,93.8333 145.5,86C 146.094,85.5357 146.761,85.369 147.5,85.5 Z"/></g>
<g><path style="opacity:0.012" fill="#58ca93" d="M 58.5,96.5 C 64.5755,101.069 70.2422,106.236 75.5,112C 75.2716,112.399 74.9382,112.565 74.5,112.5C 68.8333,107.5 63.5,102.167 58.5,96.5 Z"/></g>
<g><path style="opacity:0.995" fill="#0e4586" d="M 91.5,136.5 C 81.1408,147.86 70.1408,158.526 58.5,168.5C 56.122,166.448 53.7887,164.448 51.5,162.5C 59.5,154.167 67.5,145.833 75.5,137.5C 77.1053,138.969 77.6053,138.635 77,136.5C 69.3333,128.833 61.6667,121.167 54,113.5C 53.5172,112.552 53.3505,111.552 53.5,110.5C 55.0877,108.681 56.7544,106.847 58.5,105C 59.1667,104.333 59.8333,104.333 60.5,105C 71.0355,115.368 81.3688,125.868 91.5,136.5 Z"/></g>
<g><path style="opacity:0.404" fill="#5274a8" d="M 124.5,115.5 C 118.558,111.227 113.224,106.227 108.5,100.5C 108.369,99.7611 108.536,99.0944 109,98.5C 114.793,103.784 119.959,109.45 124.5,115.5 Z"/></g>
<g><path style="opacity:0.071" fill="#6181ac" d="M 142.5,105.5 C 149.11,110.441 155.11,116.108 160.5,122.5C 154.168,117.854 148.168,112.187 142.5,105.5 Z"/></g>
<g><path style="opacity:0.102" fill="#6d86b6" d="M 53.5,110.5 C 53.3505,111.552 53.5172,112.552 54,113.5C 61.6667,121.167 69.3333,128.833 77,136.5C 77.6053,138.635 77.1053,138.969 75.5,137.5C 68.2572,129.755 60.7572,122.089 53,114.5C 52.235,112.934 52.4017,111.601 53.5,110.5 Z"/></g>
<g><path style="opacity:0.588" fill="#6184ba" d="M 159.5,145.5 C 158.686,147.273 157.352,147.773 155.5,147C 152.296,143.964 149.296,140.797 146.5,137.5C 146.56,136.957 146.893,136.624 147.5,136.5C 150.282,139.238 152.949,142.071 155.5,145C 156.793,145.49 158.127,145.657 159.5,145.5 Z"/></g>
<g><path style="opacity:0.004" fill="#6b838a" d="M 169.5,136.5 C 167.833,138.833 165.833,140.833 163.5,142.5C 163.5,142.167 163.5,141.833 163.5,141.5C 164.911,139.086 166.911,137.419 169.5,136.5 Z"/></g>
<g><path style="opacity:0.016" fill="#436ca3" d="M 91.5,136.5 C 91.7831,137.216 92.1164,138.049 92.5,139C 82.2465,149.757 71.5799,159.924 60.5,169.5C 59.5084,169.672 58.8417,169.338 58.5,168.5C 70.1408,158.526 81.1408,147.86 91.5,136.5 Z"/></g>
<g><path style="opacity:0.035" fill="#518ea1" d="M 51.5,162.5 C 53.7887,164.448 56.122,166.448 58.5,168.5C 58.8417,169.338 59.5084,169.672 60.5,169.5C 59.7494,170.573 58.7494,170.74 57.5,170C 54.9061,167.914 52.9061,165.414 51.5,162.5 Z"/></g>
<g><path style="opacity:0.02" fill="#44c58b" d="M 82.5,156.5 C 78.0637,162.469 72.7304,168.303 66.5,174C 65.552,174.483 64.552,174.649 63.5,174.5C 69.807,168.528 76.1403,162.528 82.5,156.5 Z"/></g>
</svg>
